<?xml version="1.0" encoding="UTF-8" standalone="no"?>
<!DOCTYPE svg PUBLIC "-//W3C//DTD SVG 1.1//EN" "http://www.w3.org/Graphics/SVG/1.1/DTD/svg11.dtd">
<svg version="1.1" xmlns="http://www.w3.org/2000/svg" xmlns:xlink="http://www.w3.org/1999/xlink" preserveAspectRatio="xMidYMid meet" viewBox="0 0 640 640" width="640" height="640"><defs><path d="M640 320C640 496.61 496.61 640 320 640C143.38 640 0 496.61 0 320C0 143.39 143.38 0 320 0C496.61 0 640 143.39 640 320Z" id="f7ipzevyMN"></path><path d="M533.97 80.56C619.6 152.24 640 258.78 640 309.4C640 394.49 492.04 317.87 320 317.87C147.95 317.87 0 394.49 0 309.4C0 260.91 21.93 159.6 99.49 87.96C177.05 16.31 241.29 0 315.27 0C384.95 0 448.34 8.87 533.97 80.56Z" id="b7uTsKkzD2"></path></defs><g><g><g><g><use xlink:href="#f7ipzevyMN" opacity="1" fill="#ffffff" fill-opacity="1"></use></g><g><use xlink:href="#b7uTsKkzD2" opacity="1" fill="#c50003" fill-opacity="1"></use></g></g></g></g></svg>