<?xml version="1.0" encoding="UTF-8" standalone="no"?>
<!DOCTYPE svg PUBLIC "-//W3C//DTD SVG 1.1//EN" "http://www.w3.org/Graphics/SVG/1.1/DTD/svg11.dtd">
<svg version="1.1" xmlns="http://www.w3.org/2000/svg" xmlns:xlink="http://www.w3.org/1999/xlink" preserveAspectRatio="xMidYMid meet" viewBox="0 0 640 640" width="640" height="640"><defs><path d="M460.09 334.2C382.2 326.37 403.59 260.29 403.59 183.01C403.59 105.74 379.71 28.91 453.33 28.57C526.94 28.23 608.83 94.35 608.83 179.65C608.83 264.95 537.97 342.04 460.09 334.2Z" id="aqgME2NYa"></path><path d="M445.47 638C394.77 638 366.61 638 360.98 638C360.98 336.78 360.98 148.52 360.98 73.21C360.98 33.88 392.86 2 432.19 2C433.96 2 438.39 2 445.47 2C445.47 86.8 445.47 298.8 445.47 638Z" id="a14b6VROuL"></path></defs><g><g><g><g><use xlink:href="#aqgME2NYa" opacity="1" fill="#000000" fill-opacity="0"></use><g><use xlink:href="#aqgME2NYa" opacity="1" fill-opacity="0" stroke="#ad1111" stroke-width="52" stroke-opacity="1"></use></g></g><g><use xlink:href="#a14b6VROuL" opacity="1" fill="#ad1111" fill-opacity="1"></use><g><use xlink:href="#a14b6VROuL" opacity="1" fill-opacity="0" stroke="#000000" stroke-width="1" stroke-opacity="0"></use></g></g></g></g></g></svg>