<?xml version="1.0" encoding="UTF-8" standalone="no"?>
<!DOCTYPE svg PUBLIC "-//W3C//DTD SVG 1.1//EN" "http://www.w3.org/Graphics/SVG/1.1/DTD/svg11.dtd">
<svg version="1.1" xmlns="http://www.w3.org/2000/svg" xmlns:xlink="http://www.w3.org/1999/xlink" preserveAspectRatio="xMidYMid meet" viewBox="0 0 640 640" width="640" height="640"><defs><path d="M308.42 457.45C308.42 373.27 379.27 297.19 457.16 304.92C535.04 312.66 513.66 377.87 513.66 454.13C513.66 530.39 537.53 606.21 463.91 606.55C390.3 606.88 308.42 541.63 308.42 457.45Z" id="b1QbwbXatL"></path><path d="M471.94 632.92L471.94 5.5L556.43 5.5C556.43 302.66 556.43 488.38 556.43 562.67C556.43 601.47 524.98 632.92 486.18 632.92C484.28 632.92 479.54 632.92 471.94 632.92Z" id="c19luXEkIo"></path><path d="M342.85 180.9C342.85 266.2 271.99 343.29 194.11 335.45C116.22 327.62 137.61 261.54 137.61 184.26C137.61 106.99 113.73 30.16 187.35 29.82C260.96 29.48 342.85 95.6 342.85 180.9Z" id="b2RQ2wx0n4"></path><path d="M179.49 3.25L179.49 639.25L95 639.25C95 338.03 95 149.77 95 74.46C95 35.13 126.88 3.25 166.21 3.25C167.98 3.25 172.41 3.25 179.49 3.25Z" id="gZ63G3Wih"></path></defs><g><g><g><g><g><use xlink:href="#b1QbwbXatL" opacity="1" fill-opacity="0" stroke="#ffffff" stroke-width="52" stroke-opacity="1"></use></g></g><g><use xlink:href="#c19luXEkIo" opacity="1" fill="#ffffff" fill-opacity="1"></use></g><g><g><use xlink:href="#b2RQ2wx0n4" opacity="1" fill-opacity="0" stroke="#ad1111" stroke-width="52" stroke-opacity="1"></use></g></g><g><use xlink:href="#gZ63G3Wih" opacity="1" fill="#ad1111" fill-opacity="1"></use></g></g></g></g></svg>