<?xml version="1.0" encoding="UTF-8" standalone="no"?>
<!DOCTYPE svg PUBLIC "-//W3C//DTD SVG 1.1//EN" "http://www.w3.org/Graphics/SVG/1.1/DTD/svg11.dtd">
<svg version="1.1" xmlns="http://www.w3.org/2000/svg" xmlns:xlink="http://www.w3.org/1999/xlink" preserveAspectRatio="xMidYMid meet" viewBox="0 0 640 640" width="640" height="640"><defs><path d="M177.2 305.71C255.08 313.45 233.7 378.66 233.7 454.92C233.7 531.18 257.57 607 183.95 607.34C110.34 607.67 28.46 542.42 28.46 458.24C28.46 374.06 99.31 297.98 177.2 305.71Z" id="i2dHNqPls7"></path><path d="M191.98 6.29C242.67 6.29 270.83 6.29 276.47 6.29C276.47 303.45 276.47 489.17 276.47 563.46C276.47 602.26 245.02 633.71 206.22 633.71C204.32 633.71 199.58 633.71 191.98 633.71C191.98 550.05 191.98 340.91 191.98 6.29Z" id="b1yF6AVXnY"></path></defs><g><g><g><g><use xlink:href="#i2dHNqPls7" opacity="1" fill="#000000" fill-opacity="0"></use><g><use xlink:href="#i2dHNqPls7" opacity="1" fill-opacity="0" stroke="#ffffff" stroke-width="52" stroke-opacity="1"></use></g></g><g><use xlink:href="#b1yF6AVXnY" opacity="1" fill="#ffffff" fill-opacity="1"></use><g><use xlink:href="#b1yF6AVXnY" opacity="1" fill-opacity="0" stroke="#000000" stroke-width="1" stroke-opacity="0"></use></g></g></g></g></g></svg>