<svg xmlns="http://www.w3.org/2000/svg" viewBox="0 0 307765 333334" shape-rendering="geometricPrecision" text-rendering="geometricPrecision" image-rendering="optimizeQuality" fill-rule="evenodd" clip-rule="evenodd"><path d="M285817 187022c13659 15522 21948 35886 21948 58187 0 48670-39455 88125-88125 88125-33777 0-63111-19006-77902-46904h-40215v18837H41578v-18837H31v-21851h41547v-19006h19039v-43065H19627c-5402 0-10312-2207-13867-5761C2207 193194-1 188285-1 182881v-68981c0-4811 1748-9228 4637-12647C1747 97834-1 93418-1 88608V19628c0-5406 2206-10314 5760-13868S14222 0 19627 0h247014c5405 0 10313 2207 13867 5761 3554 3555 5761 8465 5761 13867v68980c0 4808-1750 9227-4640 12646 2891 3420 4640 7839 4640 12647v68981c0 1400-156 2787-452 4141zm-109927 52305h28920v45619h32614v-45615l29758-3-45615-44382-45676 44382zm-42234 25253c-1398-6233-2141-12715-2141-19370 0-15494 4003-30050 11025-42701H82467v43065h19054v19006h32134zm-62107-2774c7519 0 13615 6096 13615 13615s-6097 13615-13615 13615c-7519 0-13615-6096-13615-13615s6096-13615 13615-13615zM38438 35339h14509v37558H38438V35339zm199436 101552c6351 0 11500 5150 11500 11500 0 5418-3748 9960-8791 11179 4557 1112 8978 2576 13235 4360 6651 2788 12893 6360 18611 10601v-60631c0-1582-654-3029-1707-4082-816-816-1869-1393-3038-1611-346 18-693 28-1043 28H19627c-350 0-698-9-1044-28-1171 217-2224 794-3040 1609-1052 1052-1706 2498-1706 4083v68981c0 1583 654 3029 1707 4082 1054 1053 2500 1707 4082 1707h131748c7974-9438 17851-17189 29029-22645 11794-5758 25040-8989 39030-8989 4019 0 7977 268 11858 786-2972-2079-4917-5528-4917-9430 0-6351 5150-11500 11500-11500zm-43817 0c6351 0 11500 5150 11500 11500 0 6351-5150 11500-11500 11500-6351 0-11500-5150-11500-11500 0-6351 5150-11500 11500-11500zm-75386-7279h14510v37558h-14510v-37558zm-40117 0h14509v37558H78554v-37558zm-40117 0h14509v37558H38437v-37558zm199436-86994c6351 0 11500 5150 11500 11500 0 6351-5149 11500-11500 11500s-11500-5149-11500-11500c0-6350 5149-11500 11500-11500zm-43817 0c6351 0 11500 5150 11500 11500 0 6351-5150 11500-11500 11500-6351 0-11500-5149-11500-11500 0-6350 5149-11500 11500-11500zm-75386-7280h14510v37558h-14510V35338zm-40117 0h14509v37558H78553V35338zM18581 94300c346-18 693-28 1043-28h247014c350 0 698 9 1043 28 1169-218 2222-795 3039-1611 1053-1053 1707-2499 1707-4082V19627c0-1583-654-3030-1707-4083-1053-1052-2498-1706-4082-1706H19624c-1585 0-3031 654-4083 1706s-1706 2499-1706 4084v68980c0 1584 654 3030 1706 4082 816 816 1869 1393 3039 1611zm247142 92470c-5225-4079-11003-7485-17204-10083-8933-3744-18759-5814-29087-5814-6435 0-12678 806-18636 2322-31978 8344-55580 37421-55580 72013 0 41102 33320 74423 74423 74423 41102 0 74423-33320 74423-74423 0-23699-11078-44809-28337-58438z"/></svg>