<?xml version="1.0" encoding="UTF-8" standalone="no"?>
<!DOCTYPE svg PUBLIC "-//W3C//DTD SVG 1.1//EN" "http://www.w3.org/Graphics/SVG/1.1/DTD/svg11.dtd">
<svg version="1.1" xmlns="http://www.w3.org/2000/svg" xmlns:xlink="http://www.w3.org/1999/xlink" preserveAspectRatio="xMidYMid meet" viewBox="0 0 640 640" width="640" height="640"><defs><path d="M528.7 312C606.58 319.74 585.2 384.95 585.2 461.21C585.2 537.47 609.07 613.29 535.45 613.63C461.84 613.96 379.96 548.71 379.96 464.53C379.96 380.35 450.81 304.27 528.7 312Z" id="aggADpccH"></path><path d="M543.48 12.58C594.18 12.58 622.34 12.58 627.97 12.58C627.97 309.74 627.97 495.46 627.97 569.75C627.97 608.55 596.52 640 557.72 640C555.82 640 551.08 640 543.48 640C543.48 556.34 543.48 347.2 543.48 12.58Z" id="aKHddSCKi"></path><path d="M99.11 332.2C21.22 324.37 42.61 258.29 42.61 181.01C42.61 103.74 18.73 26.91 92.35 26.57C165.96 26.23 247.85 92.35 247.85 177.65C247.85 262.95 176.99 340.04 99.11 332.2Z" id="bgOizavGA"></path><path d="M84.49 636C33.8 636 5.63 636 0 636C0 334.78 0 146.52 0 71.21C0 31.88 31.88 0 71.21 0C72.98 0 77.41 0 84.49 0C84.49 84.8 84.49 296.8 84.49 636Z" id="a3bYXn6qJk"></path><path d="M281.35 344.54L281.74 344.57L282.14 344.6L282.54 344.64L282.95 344.69L283.37 344.75L283.79 344.82L284.21 344.9L284.64 345L285.07 345.1L285.5 345.22L285.94 345.35L286.38 345.49L286.83 345.65L287.27 345.82L287.72 346.01L288.23 346.24L288.73 346.49L289.21 346.74L289.67 347.01L290.12 347.29L290.56 347.57L290.98 347.86L291.38 348.16L291.77 348.47L292.15 348.78L292.51 349.1L292.86 349.42L293.2 349.74L293.52 350.07L293.83 350.4L294.12 350.73L294.4 351.06L294.67 351.39L294.93 351.72L295.18 352.05L295.41 352.38L295.63 352.7L295.84 353.02L296.04 353.33L296.23 353.64L296.41 353.94L296.57 354.23L296.73 354.51L296.87 354.79L297.01 355.06L297.14 355.31L297.25 355.56L297.36 355.79L297.46 356.01L297.55 356.22L297.63 356.41L297.7 356.59L297.77 356.75L297.82 356.9L297.87 357.02L334.89 493.38L334.99 493.76L335.09 494.15L335.17 494.53L335.25 494.92L335.32 495.31L335.38 495.71L335.44 496.1L335.49 496.49L335.53 496.89L335.56 497.28L335.59 497.68L335.61 498.08L335.62 498.48L335.63 498.87L335.62 499.27L335.61 499.67L335.59 500.07L335.57 500.47L335.54 500.87L335.5 501.27L335.45 501.67L335.4 502.07L335.34 502.47L335.27 502.87L335.19 503.27L335.11 503.67L335.02 504.07L334.92 504.46L334.82 504.86L334.71 505.25L334.59 505.65L334.47 506.04L334.33 506.43L334.19 506.82L334.05 507.21L333.89 507.6L333.73 507.98L333.56 508.36L333.39 508.75L333.21 509.13L333.02 509.5L332.82 509.87L332.62 510.24L332.42 510.6L332.21 510.96L331.99 511.32L331.77 511.67L331.54 512.01L331.3 512.35L331.07 512.68L330.82 513.01L330.57 513.34L330.32 513.66L330.06 513.97L329.8 514.28L329.53 514.58L329.25 514.88L328.97 515.18L328.69 515.46L328.4 515.74L328.11 516.02L327.82 516.29L327.51 516.56L327.21 516.81L326.9 517.07L326.59 517.31L326.27 517.55L325.95 517.79L325.62 518.02L325.29 518.24L324.96 518.46L324.62 518.67L324.28 518.87L323.93 519.06L323.58 519.25L323.23 519.44L322.88 519.62L322.52 519.79L322.16 519.95L321.79 520.1L321.06 520.39L320.32 520.64L319.58 520.86L318.83 521.05L318.09 521.2L317.35 521.31L316.6 521.4L315.86 521.45L315.12 521.47L314.39 521.46L313.66 521.41L312.93 521.34L312.22 521.24L311.5 521.1L310.8 520.94L310.1 520.75L309.42 520.53L308.74 520.28L308.08 520L307.43 519.7L306.79 519.37L306.16 519.02L305.55 518.63L304.96 518.23L304.38 517.79L303.82 517.34L303.28 516.86L302.76 516.35L302.26 515.82L301.77 515.27L301.32 514.7L300.88 514.1L300.47 513.48L300.08 512.85L299.71 512.19L299.38 511.51L299.07 510.81L298.79 510.09L298.53 509.35L298.31 508.59L273.79 418.32L181.01 607.57L180.62 608.34L180.2 609.09L179.76 609.81L179.29 610.52L178.81 611.2L178.3 611.86L177.78 612.5L177.24 613.12L176.68 613.71L176.1 614.27L175.51 614.81L174.9 615.33L174.28 615.82L173.64 616.29L172.99 616.73L172.33 617.14L171.66 617.53L170.98 617.89L170.29 618.23L169.59 618.53L168.89 618.81L168.17 619.06L167.45 619.28L166.73 619.47L166 619.64L165.27 619.77L164.53 619.87L163.8 619.95L163.06 619.99L162.33 620L161.59 619.98L160.85 619.93L160.12 619.84L159.39 619.73L158.67 619.58L157.95 619.39L157.24 619.18L156.53 618.93L155.83 618.64L155.14 618.32L154.46 617.97L153.81 617.59L153.18 617.19L152.57 616.76L151.99 616.3L151.42 615.82L150.88 615.31L150.37 614.79L149.88 614.24L149.41 613.67L148.97 613.08L148.55 612.47L148.16 611.85L147.79 611.2L147.45 610.54L147.13 609.87L146.84 609.18L146.57 608.47L146.33 607.76L146.12 607.03L145.93 606.29L145.77 605.54L145.64 604.78L145.54 604.01L145.46 603.23L145.41 602.45L145.39 601.66L145.4 600.87L145.44 600.07L145.5 599.27L145.6 598.47L145.72 597.67L145.87 596.86L146.06 596.06L146.27 595.25L146.51 594.45L146.79 593.65L147.09 592.86L147.43 592.07L147.8 591.28L240.58 402.04L154.21 437.95L153.47 438.24L152.74 438.49L151.99 438.71L151.25 438.89L150.51 439.04L149.76 439.16L149.02 439.24L148.28 439.29L147.54 439.31L146.8 439.3L146.07 439.26L145.35 439.19L144.63 439.08L143.92 438.95L143.21 438.79L142.52 438.6L141.83 438.38L141.16 438.13L140.49 437.85L139.84 437.55L139.2 437.22L138.58 436.86L137.97 436.48L137.37 436.07L136.79 435.64L136.24 435.18L135.69 434.7L135.17 434.2L134.67 433.67L134.19 433.12L133.73 432.54L133.29 431.95L132.88 431.33L132.49 430.69L132.13 430.03L131.79 429.35L131.48 428.65L131.2 427.93L130.95 427.19L130.72 426.44L130.53 425.64L130.36 424.85L130.23 424.04L130.12 423.24L130.05 422.43L130.01 421.63L130 420.82L130.02 420.01L130.07 419.21L130.15 418.41L130.25 417.61L130.39 416.81L130.55 416.02L130.74 415.24L130.95 414.46L131.19 413.69L131.46 412.92L131.76 412.17L132.08 411.43L132.42 410.7L132.79 409.98L133.18 409.27L133.59 408.58L134.03 407.9L134.49 407.24L134.98 406.59L135.48 405.96L136.01 405.35L136.55 404.75L137.12 404.18L137.71 403.63L138.31 403.09L138.94 402.58L139.59 402.1L140.25 401.64L140.93 401.2L141.63 400.79L142.34 400.4L143.08 400.04L143.82 399.72L274.36 345.44L274.5 345.39L274.66 345.35L274.83 345.3L275.02 345.25L275.21 345.2L275.42 345.14L275.64 345.09L275.87 345.03L276.12 344.98L276.38 344.93L276.64 344.88L276.92 344.83L277.21 344.78L277.5 344.73L277.81 344.69L278.13 344.65L278.45 344.62L278.79 344.59L279.13 344.56L279.48 344.54L279.84 344.53L280.21 344.52L280.58 344.52L280.96 344.53L281.35 344.54ZM279.92 355.83L279.75 355.84L279.58 355.85L279.41 355.86L279.25 355.88L279.09 355.91L278.94 355.93L278.79 355.95L278.65 355.98L278.51 356.01L278.38 356.04L278.25 356.07L278.14 356.1L278.02 356.13L277.92 356.16L277.82 356.19L277.73 356.22L277.64 356.25L277.56 356.28L277.49 356.3L277.43 356.32L277.37 356.34L277.33 356.36L146.79 410.64L146.47 410.78L146.16 410.93L145.85 411.1L145.55 411.28L145.26 411.46L144.97 411.66L144.7 411.87L144.43 412.09L144.17 412.32L143.92 412.55L143.68 412.8L143.44 413.05L143.22 413.32L143 413.59L142.79 413.86L142.6 414.15L142.41 414.44L142.23 414.74L142.06 415.04L141.9 415.35L141.76 415.66L141.62 415.98L141.49 416.3L141.38 416.63L141.27 416.96L141.18 417.29L141.1 417.63L141.03 417.97L140.97 418.31L140.93 418.65L140.9 419L140.87 419.34L140.87 419.69L140.87 420.03L140.89 420.38L140.92 420.72L140.96 421.07L141.02 421.41L141.09 421.75L141.18 422.09L141.27 422.41L141.38 422.73L141.5 423.04L141.63 423.34L141.78 423.63L141.93 423.91L142.1 424.18L142.28 424.45L142.46 424.7L142.66 424.95L142.87 425.18L143.08 425.41L143.31 425.63L143.54 425.83L143.78 426.03L144.03 426.21L144.28 426.39L144.54 426.55L144.81 426.71L145.08 426.85L145.36 426.98L145.65 427.1L145.94 427.2L146.23 427.3L146.53 427.38L146.83 427.45L147.14 427.51L147.45 427.55L147.76 427.58L148.07 427.6L148.38 427.61L148.7 427.6L149.02 427.58L149.34 427.54L149.66 427.49L149.98 427.43L150.29 427.35L150.61 427.26L150.93 427.15L151.24 427.03L262.85 380.62L157.29 595.93L157.13 596.27L156.99 596.61L156.86 596.95L156.74 597.29L156.64 597.63L156.54 597.98L156.47 598.32L156.4 598.67L156.35 599.01L156.31 599.35L156.28 599.7L156.26 600.04L156.26 600.38L156.27 600.72L156.29 601.05L156.32 601.38L156.37 601.71L156.42 602.04L156.49 602.36L156.57 602.68L156.66 602.99L156.76 603.3L156.88 603.6L157 603.89L157.14 604.18L157.29 604.47L157.44 604.74L157.61 605.01L157.79 605.27L157.98 605.52L158.18 605.77L158.39 606L158.61 606.23L158.84 606.45L159.08 606.65L159.34 606.85L159.6 607.03L159.87 607.21L160.15 607.37L160.44 607.52L160.73 607.66L161.03 607.78L161.34 607.89L161.64 607.98L161.95 608.06L162.26 608.12L162.57 608.17L162.89 608.21L163.2 608.23L163.52 608.24L163.83 608.23L164.15 608.22L164.46 608.18L164.78 608.14L165.09 608.08L165.4 608.01L165.71 607.93L166.02 607.84L166.33 607.73L166.63 607.61L166.93 607.48L167.23 607.34L167.52 607.18L167.81 607.01L168.09 606.84L168.37 606.65L168.64 606.45L168.91 606.24L169.17 606.02L169.42 605.78L169.67 605.54L169.91 605.29L170.14 605.02L170.36 604.75L170.58 604.47L170.79 604.18L170.99 603.87L171.18 603.56L171.35 603.24L171.52 602.91L277.08 387.6L308.76 504.26L308.85 504.58L308.96 504.9L309.08 505.21L309.21 505.51L309.36 505.8L309.51 506.08L309.68 506.35L309.86 506.62L310.04 506.87L310.24 507.12L310.45 507.35L310.66 507.58L310.89 507.8L311.12 508L311.36 508.2L311.61 508.38L311.86 508.56L312.12 508.72L312.39 508.88L312.66 509.02L312.94 509.15L313.23 509.26L313.52 509.37L313.81 509.47L314.11 509.55L314.41 509.62L314.72 509.67L315.03 509.72L315.34 509.75L315.65 509.77L315.96 509.77L316.28 509.77L316.6 509.74L316.92 509.71L317.24 509.66L317.55 509.59L317.87 509.52L318.19 509.42L318.51 509.31L318.82 509.19L318.98 509.12L319.13 509.05L319.29 508.98L319.44 508.91L319.59 508.83L319.74 508.75L319.89 508.66L320.03 508.57L320.18 508.48L320.32 508.39L320.46 508.3L320.6 508.2L320.74 508.1L320.87 507.99L321.01 507.89L321.14 507.78L321.27 507.67L321.4 507.56L321.53 507.44L321.65 507.32L321.78 507.2L321.9 507.08L322.02 506.95L322.13 506.82L322.25 506.69L322.36 506.56L322.47 506.43L322.58 506.29L322.69 506.15L322.79 506.01L322.9 505.87L323 505.72L323.09 505.57L323.19 505.42L323.28 505.27L323.37 505.12L323.46 504.96L323.55 504.8L323.63 504.65L323.71 504.48L323.79 504.32L323.86 504.16L323.94 503.99L324.01 503.83L324.07 503.66L324.13 503.5L324.19 503.33L324.25 503.16L324.31 502.99L324.36 502.82L324.4 502.66L324.45 502.49L324.49 502.32L324.53 502.15L324.56 501.97L324.6 501.8L324.63 501.63L324.65 501.46L324.67 501.29L324.69 501.12L324.71 500.95L324.72 500.78L324.74 500.6L324.74 500.43L324.75 500.26L324.75 500.09L324.75 499.92L324.74 499.75L324.73 499.58L324.72 499.41L324.71 499.24L324.69 499.07L324.67 498.9L324.65 498.73L324.62 498.56L324.59 498.4L324.56 498.23L324.52 498.06L324.48 497.9L324.44 497.73L287.4 361.35L287.39 361.31L287.37 361.25L287.35 361.18L287.33 361.11L287.3 361.03L287.27 360.95L287.24 360.86L287.2 360.76L287.16 360.66L287.12 360.55L287.07 360.44L287.02 360.32L286.97 360.2L286.91 360.08L286.84 359.95L286.78 359.82L286.7 359.69L286.63 359.55L286.55 359.41L286.46 359.27L286.37 359.13L286.27 358.98L286.17 358.84L286.06 358.7L285.95 358.55L285.83 358.41L285.71 358.26L285.58 358.12L285.45 357.98L285.31 357.84L285.16 357.7L285.01 357.56L284.85 357.42L284.68 357.29L284.51 357.16L284.33 357.04L284.14 356.92L283.95 356.8L283.75 356.68L283.54 356.58L283.33 356.47L283.12 356.38L282.9 356.29L282.69 356.21L282.48 356.15L282.27 356.08L282.06 356.03L281.85 355.98L281.65 355.94L281.45 355.91L281.25 355.88L281.05 355.86L280.85 355.84L280.66 355.83L280.47 355.82L280.28 355.82L280.1 355.82L279.92 355.83Z" id="c2wXI4zOQx"></path></defs><g><g><g><g><use xlink:href="#aggADpccH" opacity="1" fill="#000000" fill-opacity="0"></use><g><use xlink:href="#aggADpccH" opacity="1" fill-opacity="0" stroke="#ffffff" stroke-width="52" stroke-opacity="1"></use></g></g><g><use xlink:href="#aKHddSCKi" opacity="1" fill="#ffffff" fill-opacity="1"></use><g><use xlink:href="#aKHddSCKi" opacity="1" fill-opacity="0" stroke="#000000" stroke-width="1" stroke-opacity="0"></use></g></g></g><g><g><use xlink:href="#bgOizavGA" opacity="1" fill="#000000" fill-opacity="0"></use><g><use xlink:href="#bgOizavGA" opacity="1" fill-opacity="0" stroke="#ad1111" stroke-width="52" stroke-opacity="1"></use></g></g><g><use xlink:href="#a3bYXn6qJk" opacity="1" fill="#ad1111" fill-opacity="1"></use><g><use xlink:href="#a3bYXn6qJk" opacity="1" fill-opacity="0" stroke="#000000" stroke-width="1" stroke-opacity="0"></use></g></g></g><g><use xlink:href="#c2wXI4zOQx" opacity="1" fill="#000000" fill-opacity="1"></use><g><use xlink:href="#c2wXI4zOQx" opacity="1" fill-opacity="0" stroke="#000000" stroke-width="1" stroke-opacity="0"></use></g></g></g></g></svg>