<?xml version="1.0" encoding="UTF-8" standalone="no"?>
<!DOCTYPE svg PUBLIC "-//W3C//DTD SVG 1.1//EN" "http://www.w3.org/Graphics/SVG/1.1/DTD/svg11.dtd">
<svg version="1.1" xmlns="http://www.w3.org/2000/svg" xmlns:xlink="http://www.w3.org/1999/xlink" preserveAspectRatio="xMidYMid meet" viewBox="0 0 640 640" width="32" height="32"><defs><path d="M597.23 461.21C597.23 537.47 621.1 613.29 547.48 613.63C473.87 613.96 391.99 548.71 391.99 464.53C391.99 380.35 462.84 304.27 540.73 312C618.61 319.74 597.23 384.95 597.23 461.21Z" id="b7wIvH50o"></path><path d="M597.23 461.21C597.23 537.47 621.1 613.29 547.48 613.63C473.87 613.96 391.99 548.71 391.99 464.53C391.99 380.35 462.84 304.27 540.73 312C618.61 319.74 597.23 384.95 597.23 461.21Z" id="aM09L1Qw3"></path><path d="M640 12.58C640 309.74 640 495.46 640 569.75C640 608.55 608.55 640 569.75 640C567.85 640 563.11 640 555.51 640C555.51 556.34 555.51 347.2 555.51 12.58C606.2 12.58 634.37 12.58 640 12.58Z" id="cFeiBRoI3"></path><path d="M640 12.58C640 309.74 640 495.46 640 569.75C640 608.55 608.55 640 569.75 640C567.85 640 563.11 640 555.51 640C555.51 556.34 555.51 347.2 555.51 12.58C606.2 12.58 634.37 12.58 640 12.58Z" id="a11ODoUejz"></path><path d="M42.61 181.01C42.61 103.74 18.73 26.91 92.35 26.57C165.96 26.23 247.85 92.35 247.85 177.65C247.85 262.95 176.99 340.04 99.11 332.2C21.22 324.37 42.61 258.29 42.61 181.01Z" id="a5cmsb2oX"></path><path d="M42.61 181.01C42.61 103.74 18.73 26.91 92.35 26.57C165.96 26.23 247.85 92.35 247.85 177.65C247.85 262.95 176.99 340.04 99.11 332.2C21.22 324.37 42.61 258.29 42.61 181.01Z" id="a2ZqmDkO85"></path><path d="M0 636C0 334.78 0 146.52 0 71.21C0 31.88 31.88 0 71.21 0C72.98 0 77.41 0 84.49 0C84.49 84.8 84.49 296.8 84.49 636C33.8 636 5.63 636 0 636Z" id="d1bmbBIYdv"></path><path d="M0 636C0 334.78 0 146.52 0 71.21C0 31.88 31.88 0 71.21 0C72.98 0 77.41 0 84.49 0C84.49 84.8 84.49 296.8 84.49 636C33.8 636 5.63 636 0 636Z" id="a26ehlYOGH"></path><path d="M342.45 280.09L343.4 280.17L344.34 280.27L345.25 280.4L346.15 280.55L347.03 280.71L347.9 280.9L348.74 281.11L349.56 281.33L350.37 281.56L351.16 281.81L351.92 282.07L352.67 282.35L353.39 282.63L354.09 282.92L354.78 283.22L355.44 283.52L356.08 283.83L356.7 284.14L357.29 284.46L357.87 284.77L358.42 285.09L358.95 285.4L359.45 285.71L359.93 286.02L360.39 286.32L360.83 286.61L361.24 286.89L361.62 287.17L361.98 287.43L362.32 287.69L362.63 287.93L362.92 288.15L363.18 288.36L363.41 288.55L363.62 288.72L363.8 288.88L533.02 462.22L533.49 462.71L533.95 463.21L534.4 463.72L534.83 464.23L535.26 464.75L535.68 465.28L536.48 466.36L536.86 466.91L537.23 467.46L537.59 468.03L537.94 468.6L538.27 469.17L538.6 469.75L538.91 470.34L539.22 470.94L539.51 471.53L539.79 472.14L540.31 473.36L540.55 473.98L540.79 474.61L541.01 475.24L541.21 475.87L541.41 476.51L541.59 477.16L541.76 477.8L541.92 478.45L542.07 479.11L542.2 479.77L542.32 480.43L542.43 481.1L542.53 481.77L542.61 482.44L542.68 483.11L542.74 483.79L542.79 484.47L542.82 485.15L542.84 485.84L542.85 486.53L542.84 487.22L542.82 487.9L542.79 488.58L542.69 489.94L542.61 490.62L542.53 491.29L542.43 491.96L542.32 492.62L542.2 493.29L542.07 493.94L541.92 494.6L541.76 495.25L541.59 495.9L541.41 496.54L541.21 497.18L541.01 497.81L540.79 498.44L540.55 499.07L540.31 499.69L540.06 500.3L539.79 500.91L539.51 501.52L539.22 502.12L538.92 502.71L538.6 503.3L538.28 503.88L537.94 504.45L537.59 505.02L537.23 505.59L536.86 506.14L536.48 506.69L536.08 507.24L535.68 507.77L535.26 508.3L534.84 508.82L534.4 509.34L533.95 509.85L533.49 510.34L533.02 510.84L532.05 511.79L531.05 512.69L530.02 513.54L528.96 514.34L527.86 515.1L526.75 515.8L525.6 516.46L524.44 517.07L523.25 517.63L522.04 518.14L520.82 518.6L519.58 519.02L518.33 519.38L517.06 519.7L515.78 519.97L514.5 520.19L513.2 520.36L511.9 520.48L510.6 520.55L509.3 520.58L508 520.55L506.69 520.48L505.4 520.36L504.1 520.19L502.82 519.97L501.54 519.7L500.27 519.38L499.02 519.02L497.78 518.6L496.55 518.14L495.35 517.63L494.16 517.07L492.99 516.46L491.85 515.8L490.73 515.1L489.64 514.34L488.58 513.54L487.54 512.69L486.54 511.79L485.58 510.84L373.54 396.09L373.55 740.34L373.52 741.75L373.44 743.15L373.3 744.53L373.11 745.9L372.87 747.25L372.57 748.58L372.23 749.89L371.84 751.19L371.4 752.45L370.91 753.7L370.38 754.92L369.8 756.12L369.18 757.28L368.52 758.43L367.81 759.54L367.07 760.62L366.28 761.67L365.46 762.69L364.6 763.68L363.71 764.63L362.78 765.54L361.82 766.42L360.82 767.26L359.8 768.07L358.74 768.83L357.66 769.55L356.54 770.23L355.4 770.87L354.24 771.46L353.04 772L351.83 772.5L350.59 772.96L349.33 773.36L348.05 773.71L346.75 774.01L345.43 774.26L344.1 774.46L342.75 774.6L341.38 774.68L340 774.71L338.62 774.68L337.25 774.6L335.9 774.46L334.56 774.26L333.24 774.01L331.94 773.71L330.66 773.36L329.4 772.96L328.17 772.51L326.95 772.01L325.76 771.46L324.59 770.87L323.45 770.23L322.34 769.56L321.25 768.83L320.19 768.07L319.17 767.27L318.17 766.43L317.21 765.55L316.28 764.63L315.39 763.68L314.53 762.7L313.71 761.68L312.93 760.63L312.18 759.54L311.48 758.43L310.81 757.29L310.19 756.12L309.62 754.93L309.08 753.71L308.6 752.46L308.16 751.19L307.76 749.9L307.42 748.59L307.13 747.26L306.88 745.91L306.69 744.54L306.55 743.15L306.47 741.75L306.44 740.34L306.43 396.09L194.42 510.86L193.45 511.81L192.45 512.71L191.41 513.57L190.35 514.37L189.26 515.13L188.14 515.83L186.99 516.49L185.83 517.1L184.64 517.66L183.43 518.17L182.21 518.63L180.97 519.05L179.71 519.41L178.45 519.73L177.17 520L175.88 520.22L174.59 520.39L173.29 520.51L171.99 520.58L170.69 520.6L169.38 520.58L168.08 520.51L166.78 520.38L165.49 520.21L164.2 520L162.93 519.73L161.66 519.41L160.4 519.05L159.16 518.63L157.94 518.17L156.73 517.66L155.55 517.1L154.38 516.49L153.24 515.83L152.12 515.12L151.03 514.37L149.96 513.57L148.93 512.71L147.93 511.81L146.96 510.86L146.01 509.84L145.1 508.79L144.24 507.71L143.43 506.61L142.67 505.48L141.96 504.32L141.3 503.15L140.68 501.95L140.12 500.74L139.61 499.5L139.14 498.25L138.72 496.99L138.35 495.72L138.04 494.43L137.77 493.13L137.55 491.83L137.37 490.52L137.25 489.2L137.18 487.88L137.15 486.56L137.18 485.24L137.25 483.93L137.37 482.61L137.54 481.3L137.77 480L138.04 478.7L138.35 477.41L138.72 476.14L139.14 474.87L139.6 473.62L140.12 472.39L140.68 471.17L141.3 469.98L141.96 468.8L142.67 467.65L143.43 466.51L144.24 465.41L145.1 464.33L146 463.28L146.96 462.26L316.25 288.79L316.45 288.62L316.67 288.44L316.9 288.25L317.16 288.04L317.44 287.82L317.74 287.6L318.06 287.36L318.39 287.11L318.75 286.86L319.12 286.59L319.52 286.33L319.93 286.05L320.36 285.78L320.81 285.5L321.27 285.21L321.76 284.93L322.26 284.65L322.78 284.36L323.32 284.08L323.88 283.8L324.45 283.52L325.04 283.25L325.65 282.98L326.28 282.71L326.92 282.46L327.58 282.21L328.25 281.97L328.94 281.74L329.65 281.52L330.37 281.31L331.11 281.11L331.87 280.92L332.64 280.75L333.43 280.6L334.23 280.46L335.04 280.34L335.88 280.23L336.72 280.14L337.59 280.08L338.46 280.03L339.48 280L340.49 280L341.48 280.03L342.45 280.09ZM339.25 298.54L338.83 298.57L338.42 298.61L338.02 298.66L337.63 298.72L337.25 298.79L336.51 298.95L336.15 299.05L335.8 299.15L335.46 299.26L335.13 299.38L334.49 299.62L334.19 299.75L333.89 299.89L333.6 300.03L333.06 300.31L332.8 300.45L332.55 300.6L332.31 300.74L332.08 300.89L331.86 301.03L331.65 301.17L331.45 301.31L331.26 301.45L331.08 301.58L330.91 301.71L330.76 301.84L330.61 301.96L330.47 302.08L330.34 302.19L330.22 302.29L330.02 302.47L329.81 302.68L160.52 476.14L160.11 476.58L159.72 477.03L159.35 477.49L159 477.97L158.68 478.45L158.37 478.95L158.09 479.45L157.83 479.97L157.59 480.49L157.37 481.02L157.17 481.55L156.99 482.09L156.83 482.64L156.7 483.19L156.58 483.75L156.49 484.31L156.41 484.87L156.36 485.43L156.33 486L156.32 486.56L156.33 487.13L156.36 487.69L156.41 488.26L156.49 488.82L156.58 489.38L156.7 489.93L156.83 490.49L156.99 491.03L157.17 491.57L157.37 492.11L157.59 492.64L157.83 493.16L158.09 493.67L158.38 494.17L158.68 494.67L159.01 495.15L159.35 495.63L159.72 496.09L160.11 496.54L160.52 496.98L160.93 497.38L161.36 497.77L161.8 498.13L162.26 498.47L162.72 498.79L163.2 499.1L163.69 499.38L164.19 499.64L164.7 499.88L165.22 500.1L165.74 500.29L166.27 500.47L166.81 500.63L167.35 500.76L167.9 500.88L168.45 500.97L169.01 501.05L169.56 501.1L170.12 501.13L170.68 501.14L171.24 501.13L171.8 501.1L172.36 501.05L172.91 500.98L173.46 500.88L174.01 500.77L174.55 500.63L175.09 500.48L175.63 500.3L176.15 500.1L176.67 499.88L177.18 499.64L177.68 499.38L178.17 499.1L178.65 498.8L179.12 498.48L179.57 498.13L180.02 497.77L180.45 497.38L180.86 496.97L325.6 348.66L325.62 740.33L325.63 740.93L325.66 741.53L325.72 742.13L325.81 742.71L325.91 743.29L326.04 743.86L326.18 744.43L326.35 744.98L326.54 745.52L326.75 746.06L326.98 746.58L327.22 747.09L327.49 747.59L327.77 748.08L328.08 748.56L328.4 749.02L328.73 749.47L329.08 749.91L329.45 750.33L329.83 750.74L330.23 751.13L330.64 751.51L331.07 751.87L331.51 752.21L331.96 752.54L332.43 752.85L332.91 753.14L333.4 753.41L333.9 753.67L334.41 753.9L334.93 754.11L335.46 754.31L336 754.48L336.55 754.63L337.1 754.76L337.67 754.87L338.24 754.95L338.82 755.01L339.41 755.05L340 755.06L340.59 755.05L341.18 755.01L341.75 754.95L342.33 754.87L342.89 754.76L343.45 754.63L344 754.48L344.54 754.31L345.07 754.11L345.59 753.9L346.1 753.67L346.6 753.41L347.09 753.14L347.57 752.85L348.03 752.54L348.48 752.21L348.92 751.87L349.35 751.51L349.76 751.13L350.16 750.74L350.54 750.33L350.91 749.91L351.26 749.47L351.6 749.02L351.92 748.56L352.22 748.08L352.5 747.59L352.77 747.09L353.02 746.58L353.25 746.05L353.45 745.52L353.64 744.98L353.81 744.42L353.96 743.86L354.09 743.29L354.19 742.71L354.27 742.13L354.33 741.53L354.37 740.93L354.38 740.33L354.36 348.67L499.13 496.97L499.55 497.38L499.97 497.76L500.42 498.13L500.87 498.47L501.34 498.79L501.82 499.1L502.31 499.38L502.81 499.64L503.32 499.88L503.83 500.1L504.36 500.29L504.89 500.47L505.43 500.63L505.97 500.76L506.52 500.88L507.07 500.97L507.62 501.04L508.18 501.1L508.74 501.13L509.3 501.14L509.86 501.13L510.42 501.1L510.97 501.04L511.53 500.97L512.08 500.88L512.62 500.76L513.17 500.63L513.71 500.47L514.24 500.29L514.76 500.1L515.28 499.88L515.79 499.64L516.29 499.38L516.78 499.1L517.26 498.79L517.72 498.47L518.18 498.13L518.62 497.76L519.05 497.38L519.46 496.97L519.67 496.76L519.86 496.54L520.05 496.33L520.24 496.11L520.42 495.88L520.78 495.42L520.94 495.19L521.11 494.96L521.27 494.72L521.42 494.48L521.57 494.23L521.71 493.99L521.85 493.74L521.99 493.48L522.12 493.23L522.48 492.45L522.59 492.19L522.69 491.92L522.79 491.66L522.88 491.39L522.97 491.11L523.06 490.84L523.14 490.56L523.21 490.29L523.28 490.01L523.34 489.73L523.4 489.45L523.45 489.16L523.5 488.88L523.54 488.59L523.57 488.3L523.6 488.01L523.63 487.72L523.65 487.43L523.66 487.14L523.67 486.84L523.67 486.25L523.66 485.96L523.65 485.67L523.63 485.37L523.6 485.08L523.57 484.79L523.54 484.51L523.5 484.22L523.45 483.93L523.4 483.65L523.34 483.37L523.28 483.09L523.21 482.81L523.14 482.53L523.06 482.26L522.97 481.98L522.79 481.44L522.69 481.17L522.59 480.91L522.48 480.64L522.24 480.12L522.12 479.87L521.99 479.61L521.85 479.36L521.71 479.11L521.57 478.86L521.42 478.62L521.27 478.38L521.11 478.14L520.94 477.9L520.78 477.67L520.42 477.21L520.24 476.99L520.05 476.77L519.86 476.55L519.67 476.34L519.46 476.13L350.21 302.75L350.14 302.69L349.99 302.54L349.79 302.36L349.67 302.25L349.54 302.15L349.41 302.03L349.26 301.91L349.11 301.78L348.94 301.65L348.76 301.52L348.58 301.38L348.18 301.1L347.96 300.95L347.74 300.81L347.5 300.67L347.26 300.52L347.01 300.38L346.74 300.23L346.47 300.09L346.19 299.95L345.9 299.82L345.3 299.56L344.98 299.44L344.65 299.32L344.32 299.21L343.98 299.1L343.63 299L343.27 298.91L342.53 298.75L341.75 298.63L341.35 298.59L340.53 298.53L340.1 298.52L339.67 298.52L339.25 298.54Z" id="a2j9O1RE"></path><path d="M342.45 280.09L343.4 280.17L344.34 280.27L345.25 280.4L346.15 280.55L347.03 280.71L347.9 280.9L348.74 281.11L349.56 281.33L350.37 281.56L351.16 281.81L351.92 282.07L352.67 282.35L353.39 282.63L354.09 282.92L354.78 283.22L355.44 283.52L356.08 283.83L356.7 284.14L357.29 284.46L357.87 284.77L358.42 285.09L358.95 285.4L359.45 285.71L359.93 286.02L360.39 286.32L360.83 286.61L361.24 286.89L361.62 287.17L361.98 287.43L362.32 287.69L362.63 287.93L362.92 288.15L363.18 288.36L363.41 288.55L363.62 288.72L363.8 288.88L533.02 462.22L533.49 462.71L533.95 463.21L534.4 463.72L534.83 464.23L535.26 464.75L535.68 465.28L536.48 466.36L536.86 466.91L537.23 467.46L537.59 468.03L537.94 468.6L538.27 469.17L538.6 469.75L538.91 470.34L539.22 470.94L539.51 471.53L539.79 472.14L540.31 473.36L540.55 473.98L540.79 474.61L541.01 475.24L541.21 475.87L541.41 476.51L541.59 477.16L541.76 477.8L541.92 478.45L542.07 479.11L542.2 479.77L542.32 480.43L542.43 481.1L542.53 481.77L542.61 482.44L542.68 483.11L542.74 483.79L542.79 484.47L542.82 485.15L542.84 485.84L542.85 486.53L542.84 487.22L542.82 487.9L542.79 488.58L542.69 489.94L542.61 490.62L542.53 491.29L542.43 491.96L542.32 492.62L542.2 493.29L542.07 493.94L541.92 494.6L541.76 495.25L541.59 495.9L541.41 496.54L541.21 497.18L541.01 497.81L540.79 498.44L540.55 499.07L540.31 499.69L540.06 500.3L539.79 500.91L539.51 501.52L539.22 502.12L538.92 502.71L538.6 503.3L538.28 503.88L537.94 504.45L537.59 505.02L537.23 505.59L536.86 506.14L536.48 506.69L536.08 507.24L535.68 507.77L535.26 508.3L534.84 508.82L534.4 509.34L533.95 509.85L533.49 510.34L533.02 510.84L532.05 511.79L531.05 512.69L530.02 513.54L528.96 514.34L527.86 515.1L526.75 515.8L525.6 516.46L524.44 517.07L523.25 517.63L522.04 518.14L520.82 518.6L519.58 519.02L518.33 519.38L517.06 519.7L515.78 519.97L514.5 520.19L513.2 520.36L511.9 520.48L510.6 520.55L509.3 520.58L508 520.55L506.69 520.48L505.4 520.36L504.1 520.19L502.82 519.97L501.54 519.7L500.27 519.38L499.02 519.02L497.78 518.6L496.55 518.14L495.35 517.63L494.16 517.07L492.99 516.46L491.85 515.8L490.73 515.1L489.64 514.34L488.58 513.54L487.54 512.69L486.54 511.79L485.58 510.84L373.54 396.09L373.55 740.34L373.52 741.75L373.44 743.15L373.3 744.53L373.11 745.9L372.87 747.25L372.57 748.58L372.23 749.89L371.84 751.19L371.4 752.45L370.91 753.7L370.38 754.92L369.8 756.12L369.18 757.28L368.52 758.43L367.81 759.54L367.07 760.62L366.28 761.67L365.46 762.69L364.6 763.68L363.71 764.63L362.78 765.54L361.82 766.42L360.82 767.26L359.8 768.07L358.74 768.83L357.66 769.55L356.54 770.23L355.4 770.87L354.24 771.46L353.04 772L351.83 772.5L350.59 772.96L349.33 773.36L348.05 773.71L346.75 774.01L345.43 774.26L344.1 774.46L342.75 774.6L341.38 774.68L340 774.71L338.62 774.68L337.25 774.6L335.9 774.46L334.56 774.26L333.24 774.01L331.94 773.71L330.66 773.36L329.4 772.96L328.17 772.51L326.95 772.01L325.76 771.46L324.59 770.87L323.45 770.23L322.34 769.56L321.25 768.83L320.19 768.07L319.17 767.27L318.17 766.43L317.21 765.55L316.28 764.63L315.39 763.68L314.53 762.7L313.71 761.68L312.93 760.63L312.18 759.54L311.48 758.43L310.81 757.29L310.19 756.12L309.62 754.93L309.08 753.71L308.6 752.46L308.16 751.19L307.76 749.9L307.42 748.59L307.13 747.26L306.88 745.91L306.69 744.54L306.55 743.15L306.47 741.75L306.44 740.34L306.43 396.09L194.42 510.86L193.45 511.81L192.45 512.71L191.41 513.57L190.35 514.37L189.26 515.13L188.14 515.83L186.99 516.49L185.83 517.1L184.64 517.66L183.43 518.17L182.21 518.63L180.97 519.05L179.71 519.41L178.45 519.73L177.17 520L175.88 520.22L174.59 520.39L173.29 520.51L171.99 520.58L170.69 520.6L169.38 520.58L168.08 520.51L166.78 520.38L165.49 520.21L164.2 520L162.93 519.73L161.66 519.41L160.4 519.05L159.16 518.63L157.94 518.17L156.73 517.66L155.55 517.1L154.38 516.49L153.24 515.83L152.12 515.12L151.03 514.37L149.96 513.57L148.93 512.71L147.93 511.81L146.96 510.86L146.01 509.84L145.1 508.79L144.24 507.71L143.43 506.61L142.67 505.48L141.96 504.32L141.3 503.15L140.68 501.95L140.12 500.74L139.61 499.5L139.14 498.25L138.72 496.99L138.35 495.72L138.04 494.43L137.77 493.13L137.55 491.83L137.37 490.52L137.25 489.2L137.18 487.88L137.15 486.56L137.18 485.24L137.25 483.93L137.37 482.61L137.54 481.3L137.77 480L138.04 478.7L138.35 477.41L138.72 476.14L139.14 474.87L139.6 473.62L140.12 472.39L140.68 471.17L141.3 469.98L141.96 468.8L142.67 467.65L143.43 466.51L144.24 465.41L145.1 464.33L146 463.28L146.96 462.26L316.25 288.79L316.45 288.62L316.67 288.44L316.9 288.25L317.16 288.04L317.44 287.82L317.74 287.6L318.06 287.36L318.39 287.11L318.75 286.86L319.12 286.59L319.52 286.33L319.93 286.05L320.36 285.78L320.81 285.5L321.27 285.21L321.76 284.93L322.26 284.65L322.78 284.36L323.32 284.08L323.88 283.8L324.45 283.52L325.04 283.25L325.65 282.98L326.28 282.71L326.92 282.46L327.58 282.21L328.25 281.97L328.94 281.74L329.65 281.52L330.37 281.31L331.11 281.11L331.87 280.92L332.64 280.75L333.43 280.6L334.23 280.46L335.04 280.34L335.88 280.23L336.72 280.14L337.59 280.08L338.46 280.03L339.48 280L340.49 280L341.48 280.03L342.45 280.09ZM339.25 298.54L338.83 298.57L338.42 298.61L338.02 298.66L337.63 298.72L337.25 298.79L336.51 298.95L336.15 299.05L335.8 299.15L335.46 299.26L335.13 299.38L334.49 299.62L334.19 299.75L333.89 299.89L333.6 300.03L333.06 300.31L332.8 300.45L332.55 300.6L332.31 300.74L332.08 300.89L331.86 301.03L331.65 301.17L331.45 301.31L331.26 301.45L331.08 301.58L330.91 301.71L330.76 301.84L330.61 301.96L330.47 302.08L330.34 302.19L330.22 302.29L330.02 302.47L329.81 302.68L160.52 476.14L160.11 476.58L159.72 477.03L159.35 477.49L159 477.97L158.68 478.45L158.37 478.95L158.09 479.45L157.83 479.97L157.59 480.49L157.37 481.02L157.17 481.55L156.99 482.09L156.83 482.64L156.7 483.19L156.58 483.75L156.49 484.31L156.41 484.87L156.36 485.43L156.33 486L156.32 486.56L156.33 487.13L156.36 487.69L156.41 488.26L156.49 488.82L156.58 489.38L156.7 489.93L156.83 490.49L156.99 491.03L157.17 491.57L157.37 492.11L157.59 492.64L157.83 493.16L158.09 493.67L158.38 494.17L158.68 494.67L159.01 495.15L159.35 495.63L159.72 496.09L160.11 496.54L160.52 496.98L160.93 497.38L161.36 497.77L161.8 498.13L162.26 498.47L162.72 498.79L163.2 499.1L163.69 499.38L164.19 499.64L164.7 499.88L165.22 500.1L165.74 500.29L166.27 500.47L166.81 500.63L167.35 500.76L167.9 500.88L168.45 500.97L169.01 501.05L169.56 501.1L170.12 501.13L170.68 501.14L171.24 501.13L171.8 501.1L172.36 501.05L172.91 500.98L173.46 500.88L174.01 500.77L174.55 500.63L175.09 500.48L175.63 500.3L176.15 500.1L176.67 499.88L177.18 499.64L177.68 499.38L178.17 499.1L178.65 498.8L179.12 498.48L179.57 498.13L180.02 497.77L180.45 497.38L180.86 496.97L325.6 348.66L325.62 740.33L325.63 740.93L325.66 741.53L325.72 742.13L325.81 742.71L325.91 743.29L326.04 743.86L326.18 744.43L326.35 744.98L326.54 745.52L326.75 746.06L326.98 746.58L327.22 747.09L327.49 747.59L327.77 748.08L328.08 748.56L328.4 749.02L328.73 749.47L329.08 749.91L329.45 750.33L329.83 750.74L330.23 751.13L330.64 751.51L331.07 751.87L331.51 752.21L331.96 752.54L332.43 752.85L332.91 753.14L333.4 753.41L333.9 753.67L334.41 753.9L334.93 754.11L335.46 754.31L336 754.48L336.55 754.63L337.1 754.76L337.67 754.87L338.24 754.95L338.82 755.01L339.41 755.05L340 755.06L340.59 755.05L341.18 755.01L341.75 754.95L342.33 754.87L342.89 754.76L343.45 754.63L344 754.48L344.54 754.31L345.07 754.11L345.59 753.9L346.1 753.67L346.6 753.41L347.09 753.14L347.57 752.85L348.03 752.54L348.48 752.21L348.92 751.87L349.35 751.51L349.76 751.13L350.16 750.74L350.54 750.33L350.91 749.91L351.26 749.47L351.6 749.02L351.92 748.56L352.22 748.08L352.5 747.59L352.77 747.09L353.02 746.58L353.25 746.05L353.45 745.52L353.64 744.98L353.81 744.42L353.96 743.86L354.09 743.29L354.19 742.71L354.27 742.13L354.33 741.53L354.37 740.93L354.38 740.33L354.36 348.67L499.13 496.97L499.55 497.38L499.97 497.76L500.42 498.13L500.87 498.47L501.34 498.79L501.82 499.1L502.31 499.38L502.81 499.64L503.32 499.88L503.83 500.1L504.36 500.29L504.89 500.47L505.43 500.63L505.97 500.76L506.52 500.88L507.07 500.97L507.62 501.04L508.18 501.1L508.74 501.13L509.3 501.14L509.86 501.13L510.42 501.1L510.97 501.04L511.53 500.97L512.08 500.88L512.62 500.76L513.17 500.63L513.71 500.47L514.24 500.29L514.76 500.1L515.28 499.88L515.79 499.64L516.29 499.38L516.78 499.1L517.26 498.79L517.72 498.47L518.18 498.13L518.62 497.76L519.05 497.38L519.46 496.97L519.67 496.76L519.86 496.54L520.05 496.33L520.24 496.11L520.42 495.88L520.78 495.42L520.94 495.19L521.11 494.96L521.27 494.72L521.42 494.48L521.57 494.23L521.71 493.99L521.85 493.74L521.99 493.48L522.12 493.23L522.48 492.45L522.59 492.19L522.69 491.92L522.79 491.66L522.88 491.39L522.97 491.11L523.06 490.84L523.14 490.56L523.21 490.29L523.28 490.01L523.34 489.73L523.4 489.45L523.45 489.16L523.5 488.88L523.54 488.59L523.57 488.3L523.6 488.01L523.63 487.72L523.65 487.43L523.66 487.14L523.67 486.84L523.67 486.25L523.66 485.96L523.65 485.67L523.63 485.37L523.6 485.08L523.57 484.79L523.54 484.51L523.5 484.22L523.45 483.93L523.4 483.65L523.34 483.37L523.28 483.09L523.21 482.81L523.14 482.53L523.06 482.26L522.97 481.98L522.79 481.44L522.69 481.17L522.59 480.91L522.48 480.64L522.24 480.12L522.12 479.87L521.99 479.61L521.85 479.36L521.71 479.11L521.57 478.86L521.42 478.62L521.27 478.38L521.11 478.14L520.94 477.9L520.78 477.67L520.42 477.21L520.24 476.99L520.05 476.77L519.86 476.55L519.67 476.34L519.46 476.13L350.21 302.75L350.14 302.69L349.99 302.54L349.79 302.36L349.67 302.25L349.54 302.15L349.41 302.03L349.26 301.91L349.11 301.78L348.94 301.65L348.76 301.52L348.58 301.38L348.18 301.1L347.96 300.95L347.74 300.81L347.5 300.67L347.26 300.52L347.01 300.38L346.74 300.23L346.47 300.09L346.19 299.95L345.9 299.82L345.3 299.56L344.98 299.44L344.65 299.32L344.32 299.21L343.98 299.1L343.63 299L343.27 298.91L342.53 298.75L341.75 298.63L341.35 298.59L340.53 298.53L340.1 298.52L339.67 298.52L339.25 298.54Z" id="g3lnVEc1XP"></path></defs><g><g><g><use xlink:href="#b7wIvH50o" opacity="1" fill="#000000" fill-opacity="0"></use><g><use xlink:href="#b7wIvH50o" opacity="1" fill-opacity="0" stroke="#000000" stroke-width="1" stroke-opacity="0"></use></g></g><g><use xlink:href="#aM09L1Qw3" opacity="1" fill="#000000" fill-opacity="0"></use><g><use xlink:href="#aM09L1Qw3" opacity="1" fill-opacity="0" stroke="#ffffff" stroke-width="52" stroke-opacity="1"></use></g></g><g><use xlink:href="#cFeiBRoI3" opacity="1" fill="#ffffff" fill-opacity="1"></use><g><use xlink:href="#cFeiBRoI3" opacity="1" fill-opacity="0" stroke="#000000" stroke-width="1" stroke-opacity="0"></use></g></g><g><use xlink:href="#a11ODoUejz" opacity="1" fill="#000000" fill-opacity="0"></use><g><use xlink:href="#a11ODoUejz" opacity="1" fill-opacity="0" stroke="#000000" stroke-width="1" stroke-opacity="0"></use></g></g><g><use xlink:href="#a5cmsb2oX" opacity="1" fill="#000000" fill-opacity="0"></use><g><use xlink:href="#a5cmsb2oX" opacity="1" fill-opacity="0" stroke="#000000" stroke-width="1" stroke-opacity="0"></use></g></g><g><use xlink:href="#a2ZqmDkO85" opacity="1" fill="#000000" fill-opacity="0"></use><g><use xlink:href="#a2ZqmDkO85" opacity="1" fill-opacity="0" stroke="#ad1111" stroke-width="52" stroke-opacity="1"></use></g></g><g><use xlink:href="#d1bmbBIYdv" opacity="1" fill="#ad1111" fill-opacity="1"></use><g><use xlink:href="#d1bmbBIYdv" opacity="1" fill-opacity="0" stroke="#000000" stroke-width="1" stroke-opacity="0"></use></g></g><g><use xlink:href="#a26ehlYOGH" opacity="1" fill="#000000" fill-opacity="0"></use><g><use xlink:href="#a26ehlYOGH" opacity="1" fill-opacity="0" stroke="#000000" stroke-width="1" stroke-opacity="0"></use></g></g><g><use xlink:href="#a2j9O1RE" opacity="1" fill="#000000" fill-opacity="1"></use><g><use xlink:href="#a2j9O1RE" opacity="1" fill-opacity="0" stroke="#000000" stroke-width="1" stroke-opacity="0"></use></g></g><g><use xlink:href="#g3lnVEc1XP" opacity="1" fill="#000000" fill-opacity="0"></use><g><use xlink:href="#g3lnVEc1XP" opacity="1" fill-opacity="0" stroke="#000000" stroke-width="1" stroke-opacity="0"></use></g></g></g></g></svg>